Coordinates
version=1
nRows=8
nColumns=33
inDegrees=yes

Units are S.I. units (second, meters, Newtons, ...)
Angles are in degrees.

endheader
time	ground_thorax_rot_x	ground_thorax_rot_y	ground_thorax_rot_z	ground_thorax_tx	ground_thorax_ty	ground_thorax_tz	clav_prot_r	clav_elev_r	scapula_abduction_r	scapula_elevation_r	scapula_upward_rot_r	scapula_winging_r	shoulder_elv_r	plane_of_elev_r	axial_rot_r	elbow_flexion_r	pro_sup_r	wrist_flex_r	wrist_dev_r	clav_prot_l	clav_elev_l	scapula_abduction_l	scapula_elevation_l	scapula_upward_rot_l	scapula_winging_l	shoulder_elv_l	plane_of_elev_l	axial_rot_l	elbow_flexion_l	pro_sup_l	wrist_flex_l	wrist_dev_l
      7.27000000	     37.70771492	      8.89589501	     11.80124896	   -200.24184698	    819.94005637	     -4.55410592	     15.41408749	     37.68857877	     40.43030387	     45.00000000	    -45.00000000	   2075.20022935	   -824.79206117	    145.38230186	    179.99999979	   1093.54153168	     53.42061731	     22.91158479	      8.06245318	     10.60172329	    -45.00000000	    -40.26269755	     45.00000000	    -35.04491331	   -622.54966381	   -645.51886903	     23.96033058	    -19.56717465	   1088.14570220	     35.20376482	      6.31208083	    -24.51783673
      7.28000000	     37.75959536	      9.01807778	     11.79307905	   -198.22094231	    819.97821799	     -4.73478854	     15.68686453	     37.84337928	     40.70428529	     45.00000000	    -45.00000000	   2075.13645872	   -824.74929831	    145.28965230	    179.99999979	   1093.37468986	     52.48284628	     22.79429242	      8.22381758	     10.46417586	    -45.00000000	    -40.38307242	     45.00000000	    -34.70047378	   -622.65028236	   -645.49033961	     23.90966210	    -19.68370850	   1088.21935188	     35.01241908	      6.34788447	    -24.52615413
      7.29000000	     37.76127637	      9.00597846	     11.71551435	   -196.07489404	    819.94521420	     -4.89120017	     16.24719677	     38.17811746	     41.07507047	     45.00000000	    -45.00000000	   2075.12117904	   -824.86588932	    145.19712050	    179.99999979	   1093.31070947	     51.24012425	     22.68193918	      8.40992405	     10.15755131	    -45.00000000	    -40.57102775	     45.00000000	    -33.99133196	   -622.70825875	   -645.48055892	     23.72174172	    -19.69847392	   1088.33181256	     34.66313658	      6.42645893	    -24.56228968
      7.30000000	     37.80942719	      9.14118174	     11.74048949	   -193.79655221	    819.84529419	     -5.02998452	     16.17277986	     38.14307799	     41.28007672	     45.00000000	    -45.00000000	   2075.05977251	   -824.83556362	    145.03409166	    179.99999979	   1093.24493738	     49.96750648	     22.53363423	      8.59459748	     10.29717515	    -45.00000000	    -40.66122923	     45.00000000	    -33.72033510	   -622.80433731	   -645.57316645	     23.75132686	    -19.86051924	   1088.30340474	     34.23957483	      6.55828776	    -24.52780210
      7.31000000	     37.82035367	      9.25830127	     11.66840311	   -191.38102991	    819.68402138	     -5.15570071	     16.59797738	     38.34476724	     41.60285148	     45.00000000	    -45.00000000	   2075.14521621	   -824.87656563	    145.15198271	    179.99999979	   1093.26514864	     48.34060264	     22.38598107	      8.79786391	      9.96121526	    -45.00000000	    -40.86084315	     45.00000000	    -33.05849954	   -622.87485983	   -645.54497539	     23.60619036	    -19.87355611	   1088.40078820	     33.56786527	      6.76356282	    -24.54461716
      7.32000000	     37.85509999	      9.39565916	     11.67312132	   -188.78359216	    819.46533053	     -5.29413882	     16.71403746	     38.39842745	     41.89719658	     45.00000000	    -45.00000000	   2075.11916988	   -824.95562677	    145.03050395	    179.99999979	   1093.10977606	     46.69083218	     22.22596191	      9.05853232	      9.96579243	    -45.00000000	    -40.99619305	     45.00000000	    -32.71262996	   -622.98718916	   -645.62040878	     23.58055390	    -19.94356485	   1088.40801454	     32.79263960	      6.96841038	    -24.49109854
      7.33000000	     37.87598237	      9.53953936	     11.65567665	   -186.01607183	    819.19438979	     -5.43598171	     16.90698029	     38.45576588	     42.22787220	     45.00000000	    -45.00000000	   2075.11461444	   -825.04265603	    144.99696021	    179.99999979	   1092.96050463	     44.84992629	     22.04510573	      9.33118693	      9.86220907	    -45.00000000	    -41.09552527	     45.00000000	    -32.22118127	   -623.08650698	   -645.67317843	     23.57276840	    -20.01245014	   1088.40896249	     31.85202728	      7.26063044	    -24.43673350
      7.34000000	     37.91504525	      9.77885346	     11.70165840	   -183.10378467	    818.87170515	     -5.56541523	     16.90929916	     38.53799963	     42.50771605	     45.00000000	    -45.00000000	   2074.99512959	   -825.17917875	    144.77653874	    179.99999979	   1092.60559955	     43.24567780	     21.87410308	      9.65763491	     10.02196420	    -45.00000000	    -41.27091373	     45.00000000	    -32.07240861	   -623.23853975	   -645.74056561	     23.58338346	    -20.02720981	   1088.50394943	     30.91740355	      7.43719121	    -24.32666407
